<mxfile host="app.diagrams.net" modified="2021-12-08T12:39:50.679Z" agent="5.0 (Macintosh; Intel Mac OS X 10_15_7) AppleWebKit/537.36 (KHTML, like Gecko) Chrome/96.0.4664.55 Safari/537.36" etag="fMwpvGQre-D48loK1ePI" version="15.9.1" type="github">
  <diagram id="ui7n27BoR4KlRYZTKBpQ" name="Page-1">
    <mxGraphModel dx="1501" dy="840" grid="1" gridSize="10" guides="1" tooltips="1" connect="1" arrows="1" fold="1" page="1" pageScale="1" pageWidth="827" pageHeight="1169" math="0" shadow="0">
      <root>
        <mxCell id="0" />
        <mxCell id="1" parent="0" />
        <mxCell id="AkpKKCL8s-KDvmCP8TGj-1" value="" style="html=1;shadow=0;dashed=0;align=center;verticalAlign=middle;shape=mxgraph.arrows2.arrow;dy=0.6;dx=40;direction=east;notch=0;fillColor=#3E19F8;strokeColor=#b85450;" vertex="1" parent="1">
          <mxGeometry x="365" y="315" width="100" height="70" as="geometry" />
        </mxCell>
      </root>
    </mxGraphModel>
  </diagram>
</mxfile>
